<?xml version="1.0" encoding="utf-8"?>
<!-- Generator: Adobe Illustrator 25.4.1, SVG Export Plug-In . SVG Version: 6.00 Build 0)  -->
<svg version="1.1" id="Livello_1" xmlns="http://www.w3.org/2000/svg" xmlns:xlink="http://www.w3.org/1999/xlink" x="0px" y="0px"
	 viewBox="0 0 1080 1080" style="enable-background:new 0 0 1080 1080;" xml:space="preserve">
<style type="text/css">
	.st0{fill:none;stroke:#000000;stroke-width:4;}
	.st1{fill:none;stroke:#000000;stroke-width:4;stroke-dasharray:20.7263,20.7263;}
</style>
<g>
	<line class="st0" x1="1.6" y1="540" x2="1078.5" y2="540"/>
	<line class="st0" x1="540" y1="2.9" x2="540" y2="1077.1"/>
</g>
<circle class="st0" cx="790.5" cy="665.8" r="93.5"/>
<g>
	<line class="st0" x1="216.9" y1="67.1" x2="216.9" y2="318.5"/>
	<line class="st0" x1="154" y1="83.9" x2="279.7" y2="301.7"/>
	<line class="st0" x1="108" y1="129.9" x2="325.8" y2="255.7"/>
	<line class="st0" x1="91.1" y1="192.8" x2="342.6" y2="192.8"/>
	<line class="st0" x1="108" y1="255.7" x2="325.8" y2="129.9"/>
	<line class="st0" x1="154" y1="301.7" x2="279.7" y2="83.9"/>
</g>
<g>
	<g>
		<path class="st0" d="M667,642.1c0,0-3.4,0.2-9.8,0.2"/>
		<path class="st1" d="M637,641.7c-79.6-4.4-296-38.4-388-274.1"/>
		<path class="st0" d="M245.5,358.7c-1.1-2.8-2.1-5.8-3.1-8.7"/>
	</g>
</g>
</svg>
