<?xml version="1.0" encoding="utf-8"?>
<!-- Generator: Adobe Illustrator 25.4.1, SVG Export Plug-In . SVG Version: 6.00 Build 0)  -->
<svg version="1.1" id="Livello_1" xmlns="http://www.w3.org/2000/svg" xmlns:xlink="http://www.w3.org/1999/xlink" x="0px" y="0px"
	 viewBox="0 0 1080 1080" style="enable-background:new 0 0 1080 1080;" xml:space="preserve">
<style type="text/css">
	.st0{fill:none;stroke:#000000;stroke-width:4;}
	.st1{fill:none;stroke:#000000;stroke-width:4;stroke-dasharray:19.5301,19.5301;}
</style>
<g>
	<line class="st0" x1="1.6" y1="540" x2="1078.5" y2="540"/>
	<line class="st0" x1="540" y1="2.9" x2="540" y2="1077.1"/>
</g>
<circle class="st0" cx="234" cy="956.8" r="93.5"/>
<g>
	<line class="st0" x1="308.5" y1="12.1" x2="308.5" y2="263.6"/>
	<line class="st0" x1="245.6" y1="29" x2="371.4" y2="246.7"/>
	<line class="st0" x1="199.6" y1="75" x2="417.4" y2="200.7"/>
	<line class="st0" x1="182.8" y1="137.9" x2="434.2" y2="137.9"/>
	<line class="st0" x1="199.6" y1="200.7" x2="417.4" y2="75"/>
	<line class="st0" x1="245.6" y1="246.7" x2="371.4" y2="29"/>
</g>
<g>
	<g>
		<path class="st0" d="M307.9,300.9c0,0-1.6,3.2-4.3,9.1"/>
		<path class="st1" d="M295.7,328.1C263,405.1,179.2,630.3,229,818.7"/>
		<path class="st0" d="M231.2,826.8c0.8,2.7,1.6,5.4,2.4,8"/>
	</g>
</g>
</svg>
