<?xml version="1.0" encoding="utf-8"?>
<!-- Generator: Adobe Illustrator 25.4.1, SVG Export Plug-In . SVG Version: 6.00 Build 0)  -->
<svg version="1.1" id="Livello_1" xmlns="http://www.w3.org/2000/svg" xmlns:xlink="http://www.w3.org/1999/xlink" x="0px" y="0px"
	 viewBox="0 0 1080 1080" style="enable-background:new 0 0 1080 1080;" xml:space="preserve">
<style type="text/css">
	.st0{fill:none;stroke:#000000;stroke-width:4;}
	.st1{fill:none;stroke:#000000;stroke-width:4;stroke-dasharray:19.5301,19.5301;}
</style>
<g>
	<line class="st0" x1="1.6" y1="540" x2="1078.5" y2="540"/>
	<line class="st0" x1="540" y1="2.9" x2="540" y2="1077.1"/>
</g>
<circle class="st0" cx="273.8" cy="717.8" r="93.5"/>
<g>
	<line class="st0" x1="149.2" y1="159.2" x2="149.2" y2="410.7"/>
	<line class="st0" x1="86.3" y1="176.1" x2="212.1" y2="393.8"/>
	<line class="st0" x1="40.3" y1="222.1" x2="258.1" y2="347.8"/>
	<line class="st0" x1="23.5" y1="285" x2="274.9" y2="285"/>
	<line class="st0" x1="40.3" y1="347.8" x2="258.1" y2="222.1"/>
	<line class="st0" x1="86.3" y1="393.8" x2="212.1" y2="176.1"/>
</g>
<g>
	<g>
		<path class="st0" d="M274.2,358.7c0,0,1.4,1.3,3.7,3.7"/>
		<path class="st1" d="M284.9,370c28.6,32.4,102.1,130.3,60.4,242.8"/>
		<path class="st0" d="M343.4,617.7c-0.7,1.6-1.3,3.2-2,4.9"/>
	</g>
</g>
</svg>
