<?xml version="1.0" encoding="utf-8"?>
<!-- Generator: Adobe Illustrator 25.4.1, SVG Export Plug-In . SVG Version: 6.00 Build 0)  -->
<svg version="1.1" id="Livello_1" xmlns="http://www.w3.org/2000/svg" xmlns:xlink="http://www.w3.org/1999/xlink" x="0px" y="0px"
	 viewBox="0 0 1080 1080" style="enable-background:new 0 0 1080 1080;" xml:space="preserve">
<style type="text/css">
	.st0{fill:none;stroke:#000000;stroke-width:4;}
	.st1{fill:none;stroke:#000000;stroke-width:4;stroke-dasharray:19.5301,19.5301;}
</style>
<g>
	<line class="st0" x1="1.6" y1="540" x2="1078.5" y2="540"/>
	<line class="st0" x1="540" y1="2.9" x2="540" y2="1077.1"/>
</g>
<circle class="st0" cx="141" cy="953.8" r="93.5"/>
<g>
	<line class="st0" x1="294.5" y1="69.1" x2="294.5" y2="320.6"/>
	<line class="st0" x1="231.6" y1="86" x2="357.4" y2="303.7"/>
	<line class="st0" x1="185.6" y1="132" x2="403.4" y2="257.7"/>
	<line class="st0" x1="168.8" y1="194.9" x2="420.2" y2="194.9"/>
	<line class="st0" x1="185.6" y1="257.7" x2="403.4" y2="132"/>
	<line class="st0" x1="231.6" y1="303.7" x2="357.4" y2="86"/>
</g>
<g>
	<g>
		<path class="st0" d="M305.6,344.7c0,0,1.4,3.3,3.6,9.3"/>
		<path class="st1" d="M315.4,372.5c24.7,78,76.8,303.8-81.3,466.8"/>
		<path class="st0" d="M227.2,846.3c-2.4,2.3-4.8,4.6-7.2,6.9"/>
	</g>
</g>
</svg>
