<?xml version="1.0" encoding="utf-8"?>
<!-- Generator: Adobe Illustrator 25.4.1, SVG Export Plug-In . SVG Version: 6.00 Build 0)  -->
<svg version="1.1" id="Livello_1" xmlns="http://www.w3.org/2000/svg" xmlns:xlink="http://www.w3.org/1999/xlink" x="0px" y="0px"
	 viewBox="0 0 1080 1080" style="enable-background:new 0 0 1080 1080;" xml:space="preserve">
<style type="text/css">
	.st0{fill:none;stroke:#000000;stroke-width:4;}
	.st1{fill:none;stroke:#000000;stroke-width:4;stroke-dasharray:19.5301,19.5301;}
</style>
<g>
	<line class="st0" x1="1.6" y1="540" x2="1078.5" y2="540"/>
	<line class="st0" x1="540" y1="2.9" x2="540" y2="1077.1"/>
</g>
<circle class="st0" cx="889.7" cy="894" r="93.5"/>
<g>
	<line class="st0" x1="218.1" y1="47.3" x2="218.1" y2="298.8"/>
	<line class="st0" x1="155.2" y1="64.2" x2="281" y2="281.9"/>
	<line class="st0" x1="109.2" y1="110.2" x2="327" y2="235.9"/>
	<line class="st0" x1="92.4" y1="173.1" x2="343.8" y2="173.1"/>
	<line class="st0" x1="109.2" y1="235.9" x2="327" y2="110.2"/>
	<line class="st0" x1="155.2" y1="281.9" x2="281" y2="64.2"/>
</g>
<g>
	<g>
		<path class="st0" d="M329,278.5c0,0,4.1,2.2,11.4,6.3"/>
		<path class="st1" d="M362.6,297.9c92.9,55.9,352.8,228.6,447.5,461.6"/>
		<path class="st0" d="M814.2,769.5c1.3,3.4,2.5,6.8,3.8,10.1"/>
	</g>
</g>
</svg>
