<?xml version="1.0" encoding="utf-8"?>
<!-- Generator: Adobe Illustrator 25.4.1, SVG Export Plug-In . SVG Version: 6.00 Build 0)  -->
<svg version="1.1" id="Livello_1" xmlns="http://www.w3.org/2000/svg" xmlns:xlink="http://www.w3.org/1999/xlink" x="0px" y="0px"
	 viewBox="0 0 1080 1080" style="enable-background:new 0 0 1080 1080;" xml:space="preserve">
<style type="text/css">
	.st0{fill:none;stroke:#000000;stroke-width:4;}
	.st1{fill:none;stroke:#000000;stroke-width:4;stroke-dasharray:19.5301,19.5301;}
</style>
<g>
	<line class="st0" x1="1.6" y1="540" x2="1078.5" y2="540"/>
	<line class="st0" x1="540" y1="2.9" x2="540" y2="1077.1"/>
</g>
<circle class="st0" cx="408.6" cy="656.5" r="93.5"/>
<g>
	<line class="st0" x1="238" y1="71.8" x2="238" y2="323.3"/>
	<line class="st0" x1="175.1" y1="88.7" x2="300.9" y2="306.4"/>
	<line class="st0" x1="129.1" y1="134.7" x2="346.9" y2="260.4"/>
	<line class="st0" x1="112.3" y1="197.6" x2="363.7" y2="197.6"/>
	<line class="st0" x1="129.1" y1="260.4" x2="346.9" y2="134.7"/>
	<line class="st0" x1="175.1" y1="306.4" x2="300.9" y2="88.7"/>
</g>
<g>
	<g>
		<path class="st0" d="M240.1,349.7c0,0-0.2,1.8-0.4,5"/>
		<path class="st1" d="M239.1,364.6c-1.9,41.7-2.2,161.8,51.2,242.2"/>
		<path class="st0" d="M292.6,610.2c0.8,1.1,1.6,2.3,2.4,3.4"/>
	</g>
</g>
</svg>
