<?xml version="1.0" encoding="utf-8"?>
<!-- Generator: Adobe Illustrator 25.4.1, SVG Export Plug-In . SVG Version: 6.00 Build 0)  -->
<svg version="1.1" id="Livello_1" xmlns="http://www.w3.org/2000/svg" xmlns:xlink="http://www.w3.org/1999/xlink" x="0px" y="0px"
	 viewBox="0 0 1080 1080" style="enable-background:new 0 0 1080 1080;" xml:space="preserve">
<style type="text/css">
	.st0{fill:none;stroke:#000000;stroke-width:4;}
	.st1{fill:none;stroke:#000000;stroke-width:4;stroke-dasharray:19.5301,19.5301;}
</style>
<g>
	<line class="st0" x1="1.6" y1="540" x2="1078.5" y2="540"/>
	<line class="st0" x1="540" y1="2.9" x2="540" y2="1077.1"/>
</g>
<circle class="st0" cx="142.1" cy="661.1" r="93.5"/>
<g>
	<line class="st0" x1="204.3" y1="13.6" x2="204.3" y2="265.1"/>
	<line class="st0" x1="141.4" y1="30.5" x2="267.2" y2="248.2"/>
	<line class="st0" x1="95.4" y1="76.5" x2="313.2" y2="202.2"/>
	<line class="st0" x1="78.6" y1="139.4" x2="330" y2="139.4"/>
	<line class="st0" x1="95.4" y1="202.2" x2="313.2" y2="76.5"/>
	<line class="st0" x1="141.4" y1="248.2" x2="267.2" y2="30.5"/>
</g>
<g>
	<g>
		<path class="st0" d="M174.5,270.3c0,0-0.8,1.7-2.2,4.8"/>
		<path class="st1" d="M168.4,284.7c-16.6,40.8-59.3,160.2-37.6,258.6"/>
		<path class="st0" d="M131.8,547.6c0.4,1.4,0.7,2.8,1.1,4.2"/>
	</g>
</g>
</svg>
